<svg xmlns="http://www.w3.org/2000/svg" xmlns:xlink="http://www.w3.org/1999/xlink" width="800" height="800" viewBox="0 0 800 800">
  <defs>
    <linearGradient id="linear-gradient" x1="0.786" y1="0.086" x2="0.5" y2="1" gradientUnits="objectBoundingBox">
      <stop offset="0" stop-color="#f12503"/>
      <stop offset="0.678" stop-color="#da3311"/>
      <stop offset="1" stop-color="#d57124"/>
    </linearGradient>
  </defs>
  <g id="ロゴ_文字抜き" data-name="ロゴ　文字抜き" transform="translate(-336 43.038)">
    <path id="パス_19" data-name="パス 19" d="M595.049,210.592A166.575,166.575,0,0,0,450.464,96.06,166.4,166.4,0,0,0,299.734,0C232.98,0,171.324,42.135,146.127,102.114A166.446,166.446,0,0,0,57.84,393.429,166.449,166.449,0,0,0,307.616,567.42,166.442,166.442,0,0,0,550.272,383.636,166.4,166.4,0,0,0,595.049,210.6Z" transform="translate(431.632 61.036)" stroke="#fff" stroke-width="5" fill="url(#linear-gradient)"/>
    <rect id="長方形_3" data-name="長方形 3" width="800" height="800" transform="translate(336 -43.038)" fill="#fff" opacity="0"/>
    <path id="パス_336" data-name="パス 336" d="M595.049,210.592A166.575,166.575,0,0,0,450.464,96.06,166.4,166.4,0,0,0,299.734,0C232.98,0,171.324,42.135,146.127,102.114A166.446,166.446,0,0,0,57.84,393.429,166.449,166.449,0,0,0,307.616,567.42,166.442,166.442,0,0,0,550.272,383.636,166.4,166.4,0,0,0,595.049,210.6Z" transform="translate(431.632 61.036)" stroke="#fff" stroke-width="5" fill="url(#linear-gradient)"/>
    <g id="layer" transform="translate(342.746 447.371)">
      <g id="グループ_7" data-name="グループ 7" transform="translate(0 0)">
        <g id="グループ_5" data-name="グループ 5">
          <path id="パス_9" data-name="パス 9" d="M190.769,38.732a44.343,44.343,0,0,0-62.212-7.837l-.011.005c-.17-.531-.339-1.062-.531-1.593A44.336,44.336,0,0,0,44.6,59.382v.011c-.558,0-1.117-.005-1.675.011a44.341,44.341,0,0,0,2.824,88.637h.011c-.175.531-.35,1.056-.509,1.6a44.337,44.337,0,1,0,85.161,24.711v-.011c.449.328.9.662,1.363.974a44.338,44.338,0,0,0,49.816-73.361.017.017,0,0,1-.011-.005c.454-.323.909-.651,1.352-1a44.343,44.343,0,0,0,7.837-62.212Z" transform="translate(0.002 0.001)" fill="#ec4428" stroke="#fff" stroke-width="5"/>
        </g>
        <g id="グループ_6" data-name="グループ 6" transform="translate(62.469 58.638)">
          <path id="パス_11" data-name="パス 11" d="M195.664,189.676l-26.528-73.6a3.215,3.215,0,1,0-2.326.837l26.528,73.6a3.215,3.215,0,1,0,2.326-.837Z" transform="translate(-136.597 -108.651)" fill="#fff"/>
          <path id="パス_12" data-name="パス 12" d="M123.9,188.664l73.6-26.528a3.215,3.215,0,1,0-.837-2.326l-73.6,26.528a3.215,3.215,0,1,0,.837,2.326Z" transform="translate(-115.647 -129.597)" fill="#fff"/>
          <path id="パス_13" data-name="パス 13" d="M197.122,187.873l-59.777-50.478a3.219,3.219,0,1,0-1.593,1.883l59.777,50.478a3.219,3.219,0,1,0,1.593-1.883Z" transform="translate(-121.801 -118.938)" fill="#fff"/>
          <path id="パス_14" data-name="パス 14" d="M146.288,190.132l50.478-59.777a3.219,3.219,0,1,0-1.883-1.593L144.4,188.54a3.219,3.219,0,1,0,1.883,1.593Z" transform="translate(-125.943 -114.805)" fill="#fff"/>
          <path id="パス_15" data-name="パス 15" d="M197.5,185.587l-77.006-13.825a3.21,3.21,0,1,0-.432,2.436l77.006,13.825a3.21,3.21,0,1,0,.432-2.436Z" transform="translate(-114.137 -135.25)" fill="#fff"/>
          <path id="パス_16" data-name="パス 16" d="M181.187,190.5l13.825-77.006a3.21,3.21,0,1,0-2.436-.432l-13.825,77.006a3.21,3.21,0,1,0,2.436.432Z" transform="translate(-142.245 -107.137)" fill="#fff"/>
        </g>
      </g>
    </g>
    <g id="layer-2" data-name="layer" transform="translate(483.404 535.847)">
      <g id="グループ_4" data-name="グループ 4" transform="translate(0 0)">
        <g id="グループ_2" data-name="グループ 2">
          <path id="パス_1" data-name="パス 1" d="M166.309,70.28a36.083,36.083,0,0,0-42.334-28.487h-.011c.071-.449.142-.9.2-1.352a36.08,36.08,0,1,0-71.632-8.713v.011c-.405-.208-.8-.416-1.221-.608A36.082,36.082,0,0,0,20.884,96.567h.005c-.323.323-.64.646-.952.98a36.081,36.081,0,1,0,52.826,49.159l.005-.005c.208.405.41.81.635,1.21a36.082,36.082,0,0,0,63.077-35.055v-.005c.449-.071.9-.142,1.346-.23a36.083,36.083,0,0,0,28.487-42.334Z" transform="translate(-0.009 0)" fill="#eca726" stroke="#fff" stroke-width="5"/>
        </g>
        <g id="グループ_3" data-name="グループ 3" transform="translate(45.238 49.906)">
          <path id="パス_3" data-name="パス 3" d="M141.14,159.524l7.69-63.2a2.613,2.613,0,1,0-1.992-.241l-7.69,63.2a2.613,2.613,0,1,0,1.992.241Z" transform="translate(-107.368 -91.184)" fill="#fff"/>
          <path id="パス_4" data-name="パス 4" d="M87.56,149.65l63.2,7.69a2.613,2.613,0,1,0,.241-1.992l-63.2-7.69a2.613,2.613,0,1,0-.241,1.992Z" transform="translate(-82.664 -115.883)" fill="#fff"/>
          <path id="パス_5" data-name="パス 5" d="M149.708,158.748l-24.941-58.578a2.622,2.622,0,1,0-1.85.783l24.941,58.578a2.622,2.622,0,1,0,1.85-.783Z" transform="translate(-99.692 -93.237)" fill="#fff"/>
          <path id="パス_6" data-name="パス 6" d="M92.452,158.218l58.578-24.941a2.622,2.622,0,1,0-.783-1.85L91.669,156.368a2.622,2.622,0,1,0,.783,1.85Z" transform="translate(-84.726 -108.208)" fill="#fff"/>
          <path id="パス_7" data-name="パス 7" d="M150.814,157.224,99.925,118.967a2.618,2.618,0,1,0-1.21,1.609L149.6,158.839a2.618,2.618,0,1,0,1.21-1.609Z" transform="translate(-88.144 -102.282)" fill="#fff"/>
          <path id="パス_8" data-name="パス 8" d="M112.056,159.324l38.262-50.889a2.618,2.618,0,1,0-1.609-1.21l-38.262,50.889a2.618,2.618,0,1,0,1.609,1.21Z" transform="translate(-93.762 -96.66)" fill="#fff"/>
        </g>
      </g>
    </g>
    <g id="グループ_10" data-name="グループ 10" transform="translate(405.215 506.008)">
      <path id="パス_11-2" data-name="パス 11" d="M195.664,189.676l-26.528-73.6a3.215,3.215,0,1,0-2.326.837l26.528,73.6a3.215,3.215,0,1,0,2.326-.837Z" transform="translate(-136.597 -108.651)" fill="#fff"/>
      <path id="パス_12-2" data-name="パス 12" d="M123.9,188.664l73.6-26.528a3.215,3.215,0,1,0-.837-2.326l-73.6,26.528a3.215,3.215,0,1,0,.837,2.326Z" transform="translate(-115.647 -129.597)" fill="#fff"/>
      <path id="パス_13-2" data-name="パス 13" d="M197.122,187.873l-59.777-50.478a3.219,3.219,0,1,0-1.593,1.883l59.777,50.478a3.219,3.219,0,1,0,1.593-1.883Z" transform="translate(-121.801 -118.938)" fill="#fff"/>
      <path id="パス_14-2" data-name="パス 14" d="M146.288,190.132l50.478-59.777a3.219,3.219,0,1,0-1.883-1.593L144.4,188.54a3.219,3.219,0,1,0,1.883,1.593Z" transform="translate(-125.943 -114.805)" fill="#fff"/>
      <path id="パス_15-2" data-name="パス 15" d="M197.5,185.587l-77.006-13.825a3.21,3.21,0,1,0-.432,2.436l77.006,13.825a3.21,3.21,0,1,0,.432-2.436Z" transform="translate(-114.137 -135.25)" fill="#fff"/>
      <path id="パス_16-2" data-name="パス 16" d="M181.187,190.5l13.825-77.006a3.21,3.21,0,1,0-2.436-.432l-13.825,77.006a3.21,3.21,0,1,0,2.436.432Z" transform="translate(-142.245 -107.137)" fill="#fff"/>
    </g>
    <g id="グループ_11" data-name="グループ 11" transform="translate(528.642 585.752)">
      <path id="パス_3-2" data-name="パス 3" d="M141.14,159.524l7.69-63.2a2.613,2.613,0,1,0-1.992-.241l-7.69,63.2a2.613,2.613,0,1,0,1.992.241Z" transform="translate(-107.368 -91.184)" fill="#fff"/>
      <path id="パス_4-2" data-name="パス 4" d="M87.56,149.65l63.2,7.69a2.613,2.613,0,1,0,.241-1.992l-63.2-7.69a2.613,2.613,0,1,0-.241,1.992Z" transform="translate(-82.664 -115.883)" fill="#fff"/>
      <path id="パス_5-2" data-name="パス 5" d="M149.708,158.748l-24.941-58.578a2.622,2.622,0,1,0-1.85.783l24.941,58.578a2.622,2.622,0,1,0,1.85-.783Z" transform="translate(-99.692 -93.237)" fill="#fff"/>
      <path id="パス_6-2" data-name="パス 6" d="M92.452,158.218l58.578-24.941a2.622,2.622,0,1,0-.783-1.85L91.669,156.368a2.622,2.622,0,1,0,.783,1.85Z" transform="translate(-84.726 -108.208)" fill="#fff"/>
      <path id="パス_7-2" data-name="パス 7" d="M150.814,157.224,99.925,118.967a2.618,2.618,0,1,0-1.21,1.609L149.6,158.839a2.618,2.618,0,1,0,1.21-1.609Z" transform="translate(-88.144 -102.282)" fill="#fff"/>
      <path id="パス_8-2" data-name="パス 8" d="M112.056,159.324l38.262-50.889a2.618,2.618,0,1,0-1.609-1.21l-38.262,50.889a2.618,2.618,0,1,0,1.609,1.21Z" transform="translate(-93.762 -96.66)" fill="#fff"/>
    </g>
  </g>
</svg>
